<?xml version="1.0" encoding="UTF-8" standalone="no"?>
<svg
   xmlns:dc="http://purl.org/dc/elements/1.1/"
   xmlns:cc="http://creativecommons.org/ns#"
   xmlns:rdf="http://www.w3.org/1999/02/22-rdf-syntax-ns#"
   xmlns:svg="http://www.w3.org/2000/svg"
   xmlns="http://www.w3.org/2000/svg"
   xmlns:sodipodi="http://sodipodi.sourceforge.net/DTD/sodipodi-0.dtd"
   xmlns:inkscape="http://www.inkscape.org/namespaces/inkscape"
   preserveAspectRatio="xMidYMid"
   width="724"
   height="561"
   viewBox="0 0 724 561"
   version="1.1"
   id="svg3751"
   sodipodi:docname="Rlogo-rainbow.svg"
   inkscape:version="0.92.4 (5da689c313, 2019-01-14)">
  <metadata
     id="metadata3755">
    <rdf:RDF>
      <cc:Work
         rdf:about="">
        <dc:format>image/svg+xml</dc:format>
        <dc:type
           rdf:resource="http://purl.org/dc/dcmitype/StillImage" />
        <dc:title></dc:title>
      </cc:Work>
    </rdf:RDF>
  </metadata>
  <sodipodi:namedview
     pagecolor="#ffffff"
     bordercolor="#666666"
     borderopacity="1"
     objecttolerance="10"
     gridtolerance="10"
     guidetolerance="10"
     inkscape:pageopacity="0"
     inkscape:pageshadow="2"
     inkscape:window-width="958"
     inkscape:window-height="1128"
     id="namedview3753"
     showgrid="false"
     inkscape:zoom="0.84448309"
     inkscape:cx="317.45443"
     inkscape:cy="108.54859"
     inkscape:window-x="-6"
     inkscape:window-y="0"
     inkscape:window-maximized="0"
     inkscape:current-layer="svg3751" />
  <defs
     id="defs3745">
    <linearGradient
       id="gradientFill-1"
       x1="0"
       x2="1"
       y1="0"
       y2="1"
       gradientUnits="objectBoundingBox"
       spreadMethod="pad">
      <stop
         offset="0"
         stop-color="rgb(203,206,208)"
         stop-opacity="1"
         id="stop3735" />
      <stop
         offset="1"
         stop-color="rgb(132,131,139)"
         stop-opacity="1"
         id="stop3737" />
    </linearGradient>
    <linearGradient
       id="gradientFill-2"
       x1="301.02603"
       x2="703.06751"
       y1="151.40061"
       y2="553.44209"
       gradientUnits="userSpaceOnUse"
       spreadMethod="pad"
       gradientTransform="matrix(0.9899476,0,0,1.0101545,4,0)">
      <stop
         offset="0"
         stop-color="rgb(39,109,195)"
         stop-opacity="1"
         id="stop3740" />
      <stop
         offset="1"
         stop-color="rgb(22,92,170)"
         stop-opacity="1"
         id="stop3742" />
    </linearGradient>
    <clipPath
       clipPathUnits="userSpaceOnUse"
       id="clipPath7132">
      <path
         inkscape:connector-curvature="0"
         style="fill:#ffffff;fill-rule:evenodd;stroke-width:0.31274006"
         d="m 78.810477,70.073168 c 0,0 6.824615,2.059395 10.789534,4.065622 1.375743,0.696161 3.756006,2.085351 5.472951,3.909253 1.681914,1.786369 2.501921,3.596508 2.501921,3.596508 l 26.895647,45.347319 -43.470872,0.0194 -20.328107,-38.173675 c 0,0 -4.16257,-7.152052 -6.723912,-9.225835 -2.13664,-1.729764 -3.047653,-2.34555 -5.160211,-2.34555 -1.470504,0 -10.328552,0 -10.328552,0 l 0.0082,49.71755 L 0,127 V 0 h 77.246776 c 0,0 35.183264,0.63455013 35.183264,34.108059 0,33.473509 -33.619563,35.965109 -33.619563,35.965109 z m -16.731594,-42.525146 -23.287566,-0.015 -0.01159,21.594704 23.299139,-0.0074 c 0,0 10.789531,-0.03346 10.789531,-10.984995 0,-11.171703 -10.789531,-10.587191 -10.789531,-10.587191 z"
         id="path7134" />
    </clipPath>
    <clipPath
       clipPathUnits="userSpaceOnUse"
       id="clipPath7128">
      <path
         inkscape:connector-curvature="0"
         style="fill:#ffffff;fill-rule:evenodd;stroke-width:0.31274006"
         d="m 78.810477,70.073168 c 0,0 6.824615,2.059395 10.789534,4.065622 1.375743,0.696161 3.756006,2.085351 5.472951,3.909253 1.681914,1.786369 2.501921,3.596508 2.501921,3.596508 l 26.895647,45.347319 -43.470872,0.0194 -20.328107,-38.173675 c 0,0 -4.16257,-7.152052 -6.723912,-9.225835 -2.13664,-1.729764 -3.047653,-2.34555 -5.160211,-2.34555 -1.470504,0 -10.328552,0 -10.328552,0 l 0.0082,49.71755 L 0,127 V 0 h 77.246776 c 0,0 35.183264,0.63455013 35.183264,34.108059 0,33.473509 -33.619563,35.965109 -33.619563,35.965109 z m -16.731594,-42.525146 -23.287566,-0.015 -0.01159,21.594704 23.299139,-0.0074 c 0,0 10.789531,-0.03346 10.789531,-10.984995 0,-11.171703 -10.789531,-10.587191 -10.789531,-10.587191 z"
         id="path7130" />
    </clipPath>
    <clipPath
       clipPathUnits="userSpaceOnUse"
       id="clipPath7124">
      <path
         inkscape:connector-curvature="0"
         style="fill:#ffffff;fill-rule:evenodd;stroke-width:0.31274006"
         d="m 78.810477,70.073168 c 0,0 6.824615,2.059395 10.789534,4.065622 1.375743,0.696161 3.756006,2.085351 5.472951,3.909253 1.681914,1.786369 2.501921,3.596508 2.501921,3.596508 l 26.895647,45.347319 -43.470872,0.0194 -20.328107,-38.173675 c 0,0 -4.16257,-7.152052 -6.723912,-9.225835 -2.13664,-1.729764 -3.047653,-2.34555 -5.160211,-2.34555 -1.470504,0 -10.328552,0 -10.328552,0 l 0.0082,49.71755 L 0,127 V 0 h 77.246776 c 0,0 35.183264,0.63455013 35.183264,34.108059 0,33.473509 -33.619563,35.965109 -33.619563,35.965109 z m -16.731594,-42.525146 -23.287566,-0.015 -0.01159,21.594704 23.299139,-0.0074 c 0,0 10.789531,-0.03346 10.789531,-10.984995 0,-11.171703 -10.789531,-10.587191 -10.789531,-10.587191 z"
         id="path7126" />
    </clipPath>
    <clipPath
       clipPathUnits="userSpaceOnUse"
       id="clipPath7120">
      <path
         inkscape:connector-curvature="0"
         style="fill:#ffffff;fill-rule:evenodd;stroke-width:0.31274006"
         d="m 78.810477,70.073168 c 0,0 6.824615,2.059395 10.789534,4.065622 1.375743,0.696161 3.756006,2.085351 5.472951,3.909253 1.681914,1.786369 2.501921,3.596508 2.501921,3.596508 l 26.895647,45.347319 -43.470872,0.0194 -20.328107,-38.173675 c 0,0 -4.16257,-7.152052 -6.723912,-9.225835 -2.13664,-1.729764 -3.047653,-2.34555 -5.160211,-2.34555 -1.470504,0 -10.328552,0 -10.328552,0 l 0.0082,49.71755 L 0,127 V 0 h 77.246776 c 0,0 35.183264,0.63455013 35.183264,34.108059 0,33.473509 -33.619563,35.965109 -33.619563,35.965109 z m -16.731594,-42.525146 -23.287566,-0.015 -0.01159,21.594704 23.299139,-0.0074 c 0,0 10.789531,-0.03346 10.789531,-10.984995 0,-11.171703 -10.789531,-10.587191 -10.789531,-10.587191 z"
         id="path7122" />
    </clipPath>
    <clipPath
       clipPathUnits="userSpaceOnUse"
       id="clipPath7116">
      <path
         inkscape:connector-curvature="0"
         style="fill:#ffffff;fill-rule:evenodd;stroke-width:0.31274006"
         d="m 78.810477,70.073168 c 0,0 6.824615,2.059395 10.789534,4.065622 1.375743,0.696161 3.756006,2.085351 5.472951,3.909253 1.681914,1.786369 2.501921,3.596508 2.501921,3.596508 l 26.895647,45.347319 -43.470872,0.0194 -20.328107,-38.173675 c 0,0 -4.16257,-7.152052 -6.723912,-9.225835 -2.13664,-1.729764 -3.047653,-2.34555 -5.160211,-2.34555 -1.470504,0 -10.328552,0 -10.328552,0 l 0.0082,49.71755 L 0,127 V 0 h 77.246776 c 0,0 35.183264,0.63455013 35.183264,34.108059 0,33.473509 -33.619563,35.965109 -33.619563,35.965109 z m -16.731594,-42.525146 -23.287566,-0.015 -0.01159,21.594704 23.299139,-0.0074 c 0,0 10.789531,-0.03346 10.789531,-10.984995 0,-11.171703 -10.789531,-10.587191 -10.789531,-10.587191 z"
         id="path7118" />
    </clipPath>
    <clipPath
       clipPathUnits="userSpaceOnUse"
       id="clipPath7112">
      <path
         inkscape:connector-curvature="0"
         style="fill:#ffffff;fill-rule:evenodd;stroke-width:0.31274006"
         d="m 78.810477,70.073168 c 0,0 6.824615,2.059395 10.789534,4.065622 1.375743,0.696161 3.756006,2.085351 5.472951,3.909253 1.681914,1.786369 2.501921,3.596508 2.501921,3.596508 l 26.895647,45.347319 -43.470872,0.0194 -20.328107,-38.173675 c 0,0 -4.16257,-7.152052 -6.723912,-9.225835 -2.13664,-1.729764 -3.047653,-2.34555 -5.160211,-2.34555 -1.470504,0 -10.328552,0 -10.328552,0 l 0.0082,49.71755 L 0,127 V 0 h 77.246776 c 0,0 35.183264,0.63455013 35.183264,34.108059 0,33.473509 -33.619563,35.965109 -33.619563,35.965109 z m -16.731594,-42.525146 -23.287566,-0.015 -0.01159,21.594704 23.299139,-0.0074 c 0,0 10.789531,-0.03346 10.789531,-10.984995 0,-11.171703 -10.789531,-10.587191 -10.789531,-10.587191 z"
         id="path7114" />
    </clipPath>
  </defs>
  <path
     d="M361.453,485.937 C162.329,485.937 0.906,377.828 0.906,244.469 C0.906,111.109 162.329,3.000 361.453,3.000 C560.578,3.000 722.000,111.109 722.000,244.469 C722.000,377.828 560.578,485.937 361.453,485.937 ZM416.641,97.406 C265.289,97.406 142.594,171.314 142.594,262.484 C142.594,353.654 265.289,427.562 416.641,427.562 C567.992,427.562 679.687,377.033 679.687,262.484 C679.687,147.971 567.992,97.406 416.641,97.406 Z"
     fill="url(#gradientFill-1)"
     fill-rule="evenodd"
     id="path3747" />
  <path
     inkscape:connector-curvature="0"
     transform="matrix(3.1944444,0,0,3.1944444,298.38581,153.33629)"
     style="fill:#e40303"
     d="M 0,0 H 127 V 26.194 H 0 Z"
     id="path3777"
     clip-path="url(#clipPath7132)" />
  <path
     inkscape:connector-curvature="0"
     transform="matrix(3.1944444,0,0,3.1944444,298.38581,153.33629)"
     style="fill:#ff8c00"
     d="M 0,21.167 H 127 V 47.361 H 0 Z"
     id="path3779"
     clip-path="url(#clipPath7128)" />
  <path
     inkscape:connector-curvature="0"
     transform="matrix(3.1944444,0,0,3.1944444,298.38581,153.33629)"
     style="fill:#ffed00"
     d="M 0,42.333 H 127 V 68.527 H 0 Z"
     id="path3781"
     clip-path="url(#clipPath7124)" />
  <path
     inkscape:connector-curvature="0"
     transform="matrix(3.1944444,0,0,3.1944444,298.38581,153.33629)"
     style="fill:#008026"
     d="M 0,63.5 H 127 V 89.694 H 0 Z"
     id="path3783"
     clip-path="url(#clipPath7120)" />
  <path
     inkscape:connector-curvature="0"
     transform="matrix(3.1944444,0,0,3.1944444,298.38581,153.33629)"
     style="fill:#004dff"
     d="m 0,84.667 h 127 v 26.194 H 0 Z"
     id="path3785"
     clip-path="url(#clipPath7116)" />
  <path
     inkscape:connector-curvature="0"
     transform="matrix(3.1944444,0,0,3.1944444,298.38581,153.33629)"
     style="fill:#750787"
     d="M 0,105.833 H 127 V 127 H 0 Z"
     id="path3787"
     clip-path="url(#clipPath7112)" />
</svg>
